SplineFontDB: 3.0
FontName: ZomoZIcons-Regular
FullName: ZomoZ Icons
FamilyName: ZomoZ Icons
Weight: Regular
Copyright: Copyright 2017 Servicios ZOI C.A. All Rights Reserved.
Version: 0.1
ItalicAngle: 0
UnderlinePosition: -150
UnderlineWidth: 50
Ascent: 512
Descent: 0
InvalidEm: 0
sfntRevision: 0x0000199a
woffMajor: 1
woffMinor: 1
LayerCount: 2
Layer: 0 1 "Back" 1
Layer: 1 1 "Fore" 0
XUID: [1021 299 573656125 408323]
StyleMap: 0x0000
FSType: 0
OS2Version: 4
OS2_WeightWidthSlopeOnly: 0
OS2_UseTypoMetrics: 1
CreationTime: 1454961482
ModificationTime: 1492473549
PfmFamily: 17
TTFWeight: 400
TTFWidth: 5
LineGap: 0
VLineGap: 0
Panose: 2 0 5 3 0 0 0 0 0 0
OS2TypoAscent: 512
OS2TypoAOffset: 0
OS2TypoDescent: 0
OS2TypoDOffset: 0
OS2TypoLinegap: 0
OS2WinAscent: 512
OS2WinAOffset: 0
OS2WinDescent: 0
OS2WinDOffset: 0
HheadAscent: 512
HheadAOffset: 0
HheadDescent: 0
HheadDOffset: 0
OS2SubXSize: 332
OS2SubYSize: 358
OS2SubXOff: 0
OS2SubYOff: 71
OS2SupXSize: 332
OS2SupYSize: 358
OS2SupXOff: 0
OS2SupYOff: 245
OS2StrikeYSize: 25
OS2StrikeYPos: 132
OS2Vendor: '    '
OS2CodePages: 00000001.00000000
OS2UnicodeRanges: 00000001.12000000.04000000.00000000
Lookup: 4 0 1 "'liga' Standard Ligatures in Latin lookup 0" { "'liga' Standard Ligatures in Latin lookup 0 subtable"  } ['liga' ('latn' <'dflt' > ) ]
MarkAttachClasses: 1
DEI: 91125
ShortTable: maxp 16
  1
  0
  973
  176
  24
  0
  0
  2
  0
  1
  1
  0
  64
  46
  0
  0
EndShort
LangName: 1033 "" "" "" "" "" "Version 1.011"
GaspTable: 1 65535 2 0
DesignSize: 160
Encoding: UnicodeFull
UnicodeInterp: none
NameList: AGL For New Fonts
DisplaySize: -48
AntiAlias: 1
FitToEm: 0
WinInfo: 57304 29 12
BeginPrivate: 0
EndPrivate
TeXData: 1 16777216 0 346030 173015 115343 0 1048576 115343 783286 444596 497025 792723 393216 433062 380633 303038 157286 324010 404750 52429 2506097 1059062 262144
BeginChars: 1114116 42

StartChar: zero
Encoding: 48 48 0
Width: 512
GlyphClass: 2
Flags: W
LayerCount: 2
Fore
SplineSet
0 0 m 1024,0,-1
EndSplineSet
EndChar

StartChar: one
Encoding: 49 49 1
Width: 512
GlyphClass: 2
Flags: W
LayerCount: 2
Fore
SplineSet
0 0 m 1024,0,-1
EndSplineSet
EndChar

StartChar: two
Encoding: 50 50 2
Width: 512
GlyphClass: 2
Flags: W
LayerCount: 2
Fore
SplineSet
0 0 m 1024,0,-1
EndSplineSet
EndChar

StartChar: three
Encoding: 51 51 3
Width: 512
GlyphClass: 2
Flags: W
LayerCount: 2
Fore
SplineSet
0 0 m 1024,0,-1
EndSplineSet
EndChar

StartChar: four
Encoding: 52 52 4
Width: 512
GlyphClass: 2
Flags: W
LayerCount: 2
Fore
SplineSet
0 0 m 1024,0,-1
EndSplineSet
EndChar

StartChar: five
Encoding: 53 53 5
Width: 512
GlyphClass: 2
Flags: W
LayerCount: 2
Fore
SplineSet
0 0 m 1024,0,-1
EndSplineSet
EndChar

StartChar: six
Encoding: 54 54 6
Width: 512
GlyphClass: 2
Flags: W
LayerCount: 2
Fore
SplineSet
0 0 m 1024,0,-1
EndSplineSet
EndChar

StartChar: seven
Encoding: 55 55 7
Width: 512
GlyphClass: 2
Flags: W
LayerCount: 2
Fore
SplineSet
0 0 m 1024,0,-1
EndSplineSet
EndChar

StartChar: eight
Encoding: 56 56 8
Width: 512
GlyphClass: 2
Flags: W
LayerCount: 2
Fore
SplineSet
0 0 m 1024,0,-1
EndSplineSet
EndChar

StartChar: nine
Encoding: 57 57 9
Width: 512
GlyphClass: 2
Flags: W
LayerCount: 2
Fore
SplineSet
0 0 m 1024,0,-1
EndSplineSet
EndChar

StartChar: underscore
Encoding: 95 95 10
Width: 512
GlyphClass: 2
Flags: W
LayerCount: 2
Fore
SplineSet
0 0 m 1024,0,-1
EndSplineSet
EndChar

StartChar: a
Encoding: 97 97 11
Width: 512
GlyphClass: 2
Flags: W
LayerCount: 2
Fore
SplineSet
0 0 m 1024,0,-1
EndSplineSet
EndChar

StartChar: b
Encoding: 98 98 12
Width: 512
GlyphClass: 2
Flags: W
LayerCount: 2
Fore
SplineSet
0 0 m 1024,0,-1
EndSplineSet
EndChar

StartChar: c
Encoding: 99 99 13
Width: 512
GlyphClass: 2
Flags: W
LayerCount: 2
Fore
SplineSet
0 0 m 1024,0,-1
EndSplineSet
EndChar

StartChar: d
Encoding: 100 100 14
Width: 512
GlyphClass: 2
Flags: W
LayerCount: 2
Fore
SplineSet
0 0 m 1024,0,-1
EndSplineSet
EndChar

StartChar: e
Encoding: 101 101 15
Width: 512
GlyphClass: 2
Flags: W
LayerCount: 2
Fore
SplineSet
0 0 m 1024,0,-1
EndSplineSet
EndChar

StartChar: f
Encoding: 102 102 16
Width: 512
GlyphClass: 2
Flags: W
LayerCount: 2
Fore
SplineSet
0 0 m 1024,0,-1
EndSplineSet
EndChar

StartChar: g
Encoding: 103 103 17
Width: 512
GlyphClass: 2
Flags: W
LayerCount: 2
Fore
SplineSet
0 0 m 1024,0,-1
EndSplineSet
EndChar

StartChar: h
Encoding: 104 104 18
Width: 512
GlyphClass: 2
Flags: W
LayerCount: 2
Fore
SplineSet
0 0 m 1024,0,-1
EndSplineSet
EndChar

StartChar: i
Encoding: 105 105 19
Width: 512
GlyphClass: 2
Flags: W
LayerCount: 2
Fore
SplineSet
0 0 m 1024,0,-1
EndSplineSet
EndChar

StartChar: j
Encoding: 106 106 20
Width: 512
GlyphClass: 2
Flags: W
LayerCount: 2
Fore
SplineSet
0 0 m 1024,0,-1
EndSplineSet
EndChar

StartChar: k
Encoding: 107 107 21
Width: 512
GlyphClass: 2
Flags: W
LayerCount: 2
Fore
SplineSet
0 0 m 1024,0,-1
EndSplineSet
EndChar

StartChar: l
Encoding: 108 108 22
Width: 512
GlyphClass: 2
Flags: W
LayerCount: 2
Fore
SplineSet
0 0 m 1024,0,-1
EndSplineSet
EndChar

StartChar: m
Encoding: 109 109 23
Width: 512
GlyphClass: 2
Flags: W
LayerCount: 2
Fore
SplineSet
0 0 m 1024,0,-1
EndSplineSet
EndChar

StartChar: n
Encoding: 110 110 24
Width: 512
GlyphClass: 2
Flags: W
LayerCount: 2
Fore
SplineSet
0 0 m 1024,0,-1
EndSplineSet
EndChar

StartChar: o
Encoding: 111 111 25
Width: 512
GlyphClass: 2
Flags: W
LayerCount: 2
Fore
SplineSet
0 0 m 1024,0,-1
EndSplineSet
EndChar

StartChar: p
Encoding: 112 112 26
Width: 512
GlyphClass: 2
Flags: W
LayerCount: 2
Fore
SplineSet
0 0 m 1024,0,-1
EndSplineSet
EndChar

StartChar: q
Encoding: 113 113 27
Width: 512
GlyphClass: 2
Flags: W
LayerCount: 2
Fore
SplineSet
0 0 m 1024,0,-1
EndSplineSet
EndChar

StartChar: r
Encoding: 114 114 28
Width: 512
GlyphClass: 2
Flags: W
LayerCount: 2
Fore
SplineSet
0 0 m 1024,0,-1
EndSplineSet
EndChar

StartChar: s
Encoding: 115 115 29
Width: 512
GlyphClass: 2
Flags: W
LayerCount: 2
Fore
SplineSet
0 0 m 1024,0,-1
EndSplineSet
EndChar

StartChar: t
Encoding: 116 116 30
Width: 512
GlyphClass: 2
Flags: W
LayerCount: 2
Fore
SplineSet
0 0 m 1024,0,-1
EndSplineSet
EndChar

StartChar: u
Encoding: 117 117 31
Width: 512
GlyphClass: 2
Flags: W
LayerCount: 2
Fore
SplineSet
0 0 m 1024,0,-1
EndSplineSet
EndChar

StartChar: v
Encoding: 118 118 32
Width: 512
GlyphClass: 2
Flags: W
LayerCount: 2
Fore
SplineSet
0 0 m 1024,0,-1
EndSplineSet
EndChar

StartChar: w
Encoding: 119 119 33
Width: 512
GlyphClass: 2
Flags: W
LayerCount: 2
Fore
SplineSet
0 0 m 1024,0,-1
EndSplineSet
EndChar

StartChar: x
Encoding: 120 120 34
Width: 512
GlyphClass: 2
Flags: W
LayerCount: 2
Fore
SplineSet
0 0 m 1024,0,-1
EndSplineSet
EndChar

StartChar: y
Encoding: 121 121 35
Width: 512
GlyphClass: 2
Flags: W
LayerCount: 2
Fore
SplineSet
0 0 m 1024,0,-1
EndSplineSet
EndChar

StartChar: z
Encoding: 122 122 36
Width: 512
GlyphClass: 2
Flags: W
LayerCount: 2
Fore
SplineSet
0 0 m 1024,0,-1
EndSplineSet
EndChar

StartChar: uniE001
Encoding: 57345 57345 37
Width: 512
GlyphClass: 2
Flags: W
HStem: 50 104<213 234 278 299> 71 21G<121 213 299 391> 112 20G<234 278> 410 20G<235.898 257>
VStem: 100 21<239 248.988> 348 21<415 424.988> 391 21<245 254.988>
LayerCount: 2
Fore
SplineSet
402 255 m 0,0,1
 391 255 391 255 391 245 c 2,2,-1
 391 71 l 1,3,-1
 299 71 l 1,4,-1
 299 143 l 2,5,6
 299 154 299 154 288 154 c 2,7,-1
 224 154 l 2,8,9
 213 154 213 154 213 143 c 2,10,-1
 213 71 l 1,11,-1
 121 71 l 1,12,-1
 121 239 l 2,13,14
 121 249 121 249 110 249 c 0,15,16
 100 249 100 249 100 239 c 2,17,-1
 100 61 l 2,18,19
 100 50 100 50 110 50 c 2,20,-1
 224 50 l 2,21,22
 234 50 234 50 234 61 c 2,23,-1
 234 132 l 1,24,-1
 278 132 l 1,25,-1
 278 61 l 2,26,27
 278 50 278 50 288 50 c 2,28,-1
 402 50 l 2,29,30
 412 50 412 50 412 61 c 2,31,-1
 412 245 l 2,32,33
 412 255 412 255 402 255 c 0,0,1
469 246 m 2,34,-1
 369 346 l 1,35,-1
 369 415 l 2,36,37
 369 425 369 425 358 425 c 0,38,39
 348 425 348 425 348 415 c 2,40,-1
 348 367 l 1,41,-1
 263 453 l 2,42,43
 256 460 256 460 249 453 c 2,44,-1
 43 248 l 2,45,46
 40 243 40 243 40 240 c 0,47,48
 40 236 40 236 43 233 c 0,49,50
 50 225 50 225 58 233 c 2,51,-1
 256 430 l 1,52,-1
 257 429 l 1,53,-1
 454 231 l 2,54,55
 456 228 456 228 461 228 c 128,-1,56
 466 228 466 228 469 231 c 0,57,58
 476 238 476 238 469 246 c 2,34,-1
EndSplineSet
EndChar

StartChar: uniE002
Encoding: 57346 57346 38
Width: 512
GlyphClass: 2
Flags: W
HStem: 47 19<259 313.445> 114 19<217 218.969 292 295> 176 19<143.031 146 366 367> 192 19<228.825 276.484> 295 19<229.345 283.175> 373 19<217 219.969 294 295> 440 19<198.555 253>
VStem: 50 19<244.009 311.202> 443 19<194.798 262.99>
LayerCount: 2
Fore
SplineSet
50 253 m 0,0,1
 50 244 50 244 60 244 c 0,2,3
 69 244 69 244 69 253 c 0,4,5
 69 329 69 329 122.5 383.5 c 128,-1,6
 176 438 176 438 253 440 c 1,7,-1
 240 427 l 2,8,9
 233 420 233 420 240 414 c 0,10,11
 243 411 243 411 247 411 c 0,12,13
 252 411 252 411 253 414 c 2,14,-1
 282 443 l 2,15,16
 288 450 288 450 282 456 c 2,17,-1
 253 485 l 2,18,19
 247 492 247 492 240 485 c 0,20,21
 234 478 234 478 240 472 c 2,22,-1
 253 459 l 1,23,24
 169 457 169 457 109.5 397.5 c 128,-1,25
 50 338 50 338 50 253 c 0,0,1
452 263 m 0,26,27
 443 263 443 263 443 253 c 0,28,29
 443 177 443 177 389.5 122.5 c 128,-1,30
 336 68 336 68 259 66 c 1,31,-1
 272 79 l 2,32,33
 279 86 279 86 272 92 c 0,34,35
 265 99 265 99 259 92 c 2,36,-1
 230 63 l 2,37,38
 227 62 227 62 227 57 c 0,39,40
 227 53 227 53 230 50 c 2,41,-1
 259 21 l 2,42,43
 260 18 260 18 265 18 c 0,44,45
 269 18 269 18 272 21 c 0,46,47
 279 28 279 28 272 34 c 2,48,-1
 259 47 l 1,49,50
 343 49 343 49 402.5 109 c 128,-1,51
 462 169 462 169 462 253 c 0,52,53
 462 263 462 263 452 263 c 0,26,27
233 309 m 0,54,55
 209 300 209 300 200 276 c 0,56,57
 191 253 191 253 200 230 c 0,58,59
 215 192 215 192 256 192 c 0,60,61
 267 192 267 192 279 197 c 0,62,63
 303 206 303 206 312 230 c 0,64,65
 321 253 321 253 312 276 c 0,66,67
 297 314 297 314 256 314 c 0,68,69
 245 314 245 314 233 309 c 0,54,55
295 269 m 0,70,71
 301 253 301 253 295 237 c 0,72,73
 287 222 287 222 272 214 c 0,74,75
 264 211 264 211 256 211 c 0,76,77
 228 211 228 211 217 237 c 0,78,79
 211 253 211 253 217 269 c 0,80,81
 225 286 225 286 240 292 c 0,82,83
 248 295 248 295 256 295 c 0,84,85
 284 295 284 295 295 269 c 0,70,71
275 379 m 2,86,-1
 271 370 l 1,87,88
 256 371.5 256 371.5 241 370 c 1,89,-1
 237 379 l 2,90,91
 232 392 232 392 218 392 c 0,92,93
 214 392 214 392 210 390 c 2,94,-1
 192 383 l 2,95,96
 185 380 185 380 180 372 c 0,97,98
 177 363 177 363 180 356 c 2,99,-1
 184 346 l 1,100,101
 172 337 172 337 163 325 c 1,102,-1
 153 329 l 2,103,104
 151 330 151 330 145 330 c 0,105,106
 131 330 131 330 126 317 c 2,107,-1
 119 299 l 2,108,109
 116 292 116 292 119 283 c 0,110,111
 122 275 122 275 130 272 c 2,112,-1
 140 268 l 1,113,114
 137 253 137 253 140 238 c 1,115,-1
 130 234 l 2,116,117
 122 231 122 231 119 223 c 0,118,119
 116 214 116 214 119 207 c 2,120,-1
 126 189 l 2,121,122
 131 176 131 176 145 176 c 0,123,124
 151 176 151 176 153 177 c 2,125,-1
 163 181 l 1,126,127
 172 169 172 169 184 160 c 1,128,-1
 180 151 l 2,129,130
 173 132 173 132 192 123 c 2,131,-1
 210 116 l 2,132,133
 214 114 214 114 218 114 c 0,134,135
 232 114 232 114 237 127 c 2,136,-1
 241 137 l 1,137,138
 256 134 256 134 271 137 c 1,139,-1
 275 127 l 2,140,141
 280 114 280 114 294 114 c 0,142,143
 298 114 298 114 302 116 c 2,144,-1
 320 123 l 2,145,146
 329 126 329 126 332 135 c 0,147,148
 335 142 335 142 332 151 c 2,149,-1
 328 160 l 1,150,151
 340 169 340 169 349 181 c 1,152,-1
 359 178 l 2,153,154
 361 176 361 176 367 176 c 0,155,156
 381 176 381 176 386 189 c 2,157,-1
 393 207 l 2,158,159
 398 215 398 215 393 223 c 0,160,161
 390 231 390 231 382 234 c 2,162,-1
 373 238 l 1,163,164
 374.5 253 374.5 253 373 268 c 1,165,-1
 382 272 l 2,166,167
 390 275 390 275 393 283 c 0,168,169
 397 292 397 292 393 300 c 2,170,-1
 386 317 l 2,171,172
 381 330 381 330 367 330 c 0,173,174
 361 330 361 330 359 329 c 2,175,-1
 349 325 l 1,176,177
 340 337 340 337 328 346 c 1,178,-1
 332 356 l 2,179,180
 335 364 335 364 332 372 c 0,181,182
 329 379 329 379 320 383 c 2,183,-1
 302 390 l 2,184,185
 298 392 298 392 294 392 c 0,186,187
 280 392 280 392 275 379 c 2,86,-1
286 355 m 2,188,-1
 293 372 l 1,189,-1
 294 373 l 1,190,-1
 295 373 l 1,191,-1
 313 366 l 2,192,193
 314 365 314 365 314 364 c 2,194,-1
 314 363 l 1,195,-1
 307 347 l 2,196,197
 305 339 305 339 311 335 c 0,198,199
 327.5 324.5 327.5 324.5 338 308 c 0,200,201
 341 302 341 302 349 304 c 2,202,-1
 366 311 l 1,203,-1
 367 311 l 2,204,205
 368 311 368 311 368 310 c 2,206,-1
 376 292 l 2,207,208
 376 290 376 290 375 290 c 2,209,-1
 358 283 l 2,210,211
 351 280 351 280 353 272 c 0,212,213
 356 254 356 254 353 234 c 0,214,215
 351 226 351 226 358 223 c 2,216,-1
 375 217 l 2,217,218
 375 216 375 216 375.5 216 c 128,-1,219
 376 216 376 216 376 215 c 2,220,-1
 376 214 l 1,221,-1
 368 196 l 1,222,-1
 367 195 l 1,223,-1
 366 195 l 1,224,-1
 349 202 l 2,225,226
 342 206 342 206 338 198 c 0,227,228
 326 180 326 180 311 171 c 0,229,230
 305 168 305 168 307 160 c 2,231,-1
 314 143 l 1,232,-1
 314 142 l 2,233,234
 314 141 314 141 313 141 c 2,235,-1
 295 133 l 1,236,-1
 294 133 l 2,237,238
 293 134 293 134 292 134 c 2,239,-1
 286 151 l 2,240,241
 283 157 283 157 277 157 c 2,242,-1
 275 157 l 1,243,244
 256 152 256 152 237 157 c 0,245,246
 229 157 229 157 226 151 c 2,247,-1
 219 134 l 2,248,249
 218 133 218 133 217 133 c 2,250,-1
 199 141 l 2,251,252
 196 141 196 141 198 143 c 2,253,-1
 205 160 l 2,254,255
 207 168 207 168 201 171 c 0,256,257
 184 183 184 183 174 199 c 0,258,259
 170 205 170 205 163 202 c 2,260,-1
 146 195 l 1,261,-1
 145 195 l 2,262,263
 144 195 144 195 143 196 c 2,264,-1
 136 214 l 1,265,-1
 136 216 l 1,266,-1
 137 217 l 1,267,-1
 154 223 l 2,268,269
 161 226 161 226 159 234 c 0,270,271
 156 254 156 254 159 272 c 0,272,273
 161 280 161 280 154 283 c 2,274,-1
 137 290 l 1,275,-1
 136 291 l 1,276,-1
 136 292 l 1,277,-1
 143 310 l 1,278,-1
 145 312 l 1,279,-1
 146 311 l 1,280,-1
 163 305 l 2,281,282
 171 301 171 301 174 308 c 0,283,284
 184.5 324.5 184.5 324.5 201 335 c 0,285,286
 207 339 207 339 205 347 c 2,287,-1
 198 363 l 1,288,-1
 198 364 l 2,289,290
 198 365 198 365 199 366 c 2,291,-1
 217 373 l 1,292,-1
 218 373 l 2,293,294
 219 373 219 373 220 372 c 2,295,-1
 226 356 l 2,296,297
 229 348 229 348 237 350 c 0,298,299
 256 353 256 353 275 350 c 0,300,301
 283 348 283 348 286 355 c 2,188,-1
EndSplineSet
EndChar

StartChar: uniE003
Encoding: 57347 57347 39
Width: 512
GlyphClass: 2
Flags: W
HStem: 50 23<194.375 317.625> 138 33<241.089 270.911> 237 23<268 284.287> 348 25<227.489 284.511> 437 22<196.474 315.526>
VStem: 51 23<193.174 316.394> 187 25<292.129 332.35> 240 32<138.798 170.209> 244 24<185.039 197> 300 25<275.509 332.511> 438 23<193.174 316.394>
LayerCount: 2
Fore
SplineSet
256 459 m 128,-1,1
 171 459 171 459 111 399 c 128,-1,2
 51 339 51 339 51 255 c 0,3,4
 51 170 51 170 111 110 c 128,-1,5
 171 50 171 50 256 50 c 128,-1,6
 341 50 341 50 401 110 c 128,-1,7
 461 170 461 170 461 255 c 0,8,9
 461 339 461 339 401 399 c 128,-1,0
 341 459 341 459 256 459 c 128,-1,1
256 73 m 128,-1,11
 181 73 181 73 127.5 126 c 128,-1,12
 74 179 74 179 74 255 c 0,13,14
 74 330 74 330 127.5 383.5 c 128,-1,15
 181 437 181 437 256 437 c 128,-1,16
 331 437 331 437 384.5 383.5 c 128,-1,17
 438 330 438 330 438 255 c 0,18,19
 438 179 438 179 384.5 126 c 128,-1,10
 331 73 331 73 256 73 c 128,-1,11
256 373 m 128,-1,21
 228 373 228 373 207.5 352.5 c 128,-1,22
 187 332 187 332 187 304 c 0,23,24
 187 292 187 292 200 292 c 0,25,26
 212 292 212 292 212 304 c 0,27,28
 212 322 212 322 225 335 c 128,-1,29
 238 348 238 348 256 348 c 128,-1,30
 274 348 274 348 287 335 c 128,-1,31
 300 322 300 322 300 304 c 128,-1,32
 300 286 300 286 287 273 c 128,-1,33
 274 260 274 260 256 260 c 0,34,35
 244 260 244 260 244 248 c 2,36,-1
 244 197 l 2,37,38
 244 185 244 185 256 185 c 128,-1,39
 268 185 268 185 268 197 c 2,40,-1
 268 237 l 1,41,-1
 270 237 l 1,42,43
 294 242 294 242 309.5 261 c 128,-1,44
 325 280 325 280 325 304 c 0,45,46
 325 332 325 332 304.5 352.5 c 128,-1,20
 284 373 284 373 256 373 c 128,-1,21
272 155 m 0,47,48
 272 148 272 148 267.5 143 c 128,-1,49
 263 138 263 138 256 138 c 128,-1,50
 249 138 249 138 244.5 143 c 128,-1,51
 240 148 240 148 240 155 c 0,52,53
 240 161 240 161 244.5 166 c 128,-1,54
 249 171 249 171 256 171 c 128,-1,55
 263 171 263 171 267.5 166 c 128,-1,56
 272 161 272 161 272 155 c 0,47,48
EndSplineSet
EndChar

StartChar: uniE004
Encoding: 57348 57348 40
Width: 512
GlyphClass: 2
Flags: W
VStem: 273 25<323.089 363.896>
LayerCount: 2
Fore
SplineSet
441 346 m 0,0,1
 438 356 438 356 428 358 c 0,2,3
 420 361 420 361 411 354 c 2,4,-1
 362 304 l 2,5,6
 344 288 344 288 328 304 c 2,7,-1
 306 326 l 2,8,9
 298 334 298 334 298 344 c 128,-1,10
 298 354 298 354 306 361 c 2,11,-1
 355 410 l 2,12,13
 362 417 362 417 359 427 c 128,-1,14
 356 437 356 437 346 439 c 0,15,16
 313 446 313 446 279 436 c 128,-1,17
 245 426 245 426 221 402 c 0,18,19
 178 359 178 359 183 300 c 0,20,21
 185 275 185 275 167 257 c 2,22,-1
 69 160 l 2,23,24
 60 150 60 150 69 141 c 128,-1,25
 78 132 78 132 88 141 c 2,26,-1
 185 239 l 2,27,28
 211 267 211 267 208 302 c 0,29,30
 205 350 205 350 239 384 c 0,31,32
 275 420 275 420 326 417 c 1,33,-1
 288 379 l 2,34,35
 273 364 273 364 273 343.5 c 128,-1,36
 273 323 273 323 288 308 c 2,37,-1
 310 286 l 2,38,39
 324 272 324 272 345 272 c 128,-1,40
 366 272 366 272 380 286 c 2,41,-1
 419 326 l 1,42,43
 429 272 429 272 390 233 c 0,44,45
 354 197 354 197 303 203 c 0,46,47
 265 208 265 208 237 180 c 2,48,-1
 143 86 l 2,49,50
 134 77 134 77 143 68 c 128,-1,51
 152 59 152 59 161 68 c 2,52,-1
 255 162 l 2,53,54
 273 180 273 180 300 177 c 0,55,56
 364 171 364 171 408 215 c 0,57,58
 434 241 434 241 442.5 276 c 128,-1,59
 451 311 451 311 441 346 c 0,0,1
188 168 m 2,60,61
 197 177 197 177 188 186 c 128,-1,62
 179 195 179 195 170 186 c 2,63,-1
 81 97 l 2,64,65
 72 88 72 88 81 79 c 128,-1,66
 90 70 90 70 99 79 c 2,67,-1
 188 168 l 2,60,61
EndSplineSet
EndChar

StartChar: uniE000
Encoding: 57344 57344 41
Width: 512
Flags: W
HStem: 188 39<54.188 391> 285 39<121 457.812>
LayerCount: 2
Fore
SplineSet
444 285 m 2,0,-1
 68 285 l 2,1,2
 55 285 55 285 50 298 c 0,3,4
 45 310 45 310 55 319 c 2,5,-1
 164 413 l 2,6,7
 178 425 178 425 192 411 c 0,8,9
 205 396 205 396 189 383 c 2,10,-1
 121 324 l 1,11,-1
 444 324 l 2,12,13
 452 324 452 324 458 318.5 c 128,-1,14
 464 313 464 313 464 305 c 128,-1,15
 464 297 464 297 458 291 c 128,-1,16
 452 285 452 285 444 285 c 2,0,-1
68 227 m 2,17,-1
 444 227 l 2,18,19
 457 227 457 227 462 214 c 0,20,21
 467 202 467 202 457 193 c 2,22,-1
 348 99 l 2,23,24
 334 87 334 87 320 101 c 0,25,26
 307 116 307 116 323 129 c 2,27,-1
 391 188 l 1,28,-1
 68 188 l 2,29,30
 60 188 60 188 54 193.5 c 128,-1,31
 48 199 48 199 48 207 c 128,-1,32
 48 215 48 215 54 221 c 128,-1,33
 60 227 60 227 68 227 c 2,17,-1
EndSplineSet
EndChar
